<svg width="50" height="45" viewBox="0 0 50 45" fill="none" xmlns="http://www.w3.org/2000/svg">
<path d="M44.9999 45C46.326 45 47.5978 44.4732 48.5355 43.5355C49.4731 42.5979 49.9999 41.3261 49.9999 40V27.79C49.9999 26.4639 49.4731 25.1921 48.5355 24.2545C47.5978 23.3168 46.326 22.79 44.9999 22.79H38.0599C38.0599 21.035 38.1649 19.275 38.3699 17.52C38.6799 15.66 39.1999 14.005 39.9199 12.56C40.6449 11.11 41.5749 9.975 42.7149 9.145C43.8499 8.215 45.2949 7.75 47.0549 7.75V0C44.1599 0 41.6299 0.62 39.4549 1.86C37.2988 3.08743 35.4451 4.78226 34.0299 6.82C32.6095 9.06657 31.5626 11.5285 30.9299 14.11C30.2923 16.9588 29.9803 19.8708 29.9999 22.79V40C29.9999 41.3261 30.5267 42.5979 31.4644 43.5355C32.4021 44.4732 33.6738 45 34.9999 45H44.9999ZM14.9999 45C16.326 45 17.5978 44.4732 18.5354 43.5355C19.4731 42.5979 19.9999 41.3261 19.9999 40V27.79C19.9999 26.4639 19.4731 25.1921 18.5354 24.2545C17.5978 23.3168 16.326 22.79 14.9999 22.79H8.05989C8.05989 21.035 8.16489 19.275 8.36989 17.52C8.67989 15.66 9.1999 14.005 9.9199 12.56C10.6449 11.11 11.5749 9.975 12.7149 9.145C13.8499 8.215 15.2949 7.75 17.0549 7.75V0C14.1599 0 11.6299 0.62 9.45489 1.86C7.29883 3.08743 5.44511 4.78226 4.02989 6.82C2.60952 9.06657 1.56261 11.5285 0.929891 14.11C0.29232 16.9588 -0.0196794 19.8708 -0.000110171 22.79V40C-0.000110171 41.3261 0.526674 42.5979 1.46436 43.5355C2.40204 44.4732 3.67381 45 4.99989 45H14.9999Z" fill="#D5FF3F"/>
</svg>
